<svg xmlns="http://www.w3.org/2000/svg" xmlns:xlink="http://www.w3.org/1999/xlink" width="151.409" height="30.664" viewBox="0 0 151.409 30.664"><defs><style>.a{fill:url(#a);}.b{fill:url(#b);}.c{fill:#fff;}</style><linearGradient id="a" x1="0.122" y1="1.111" x2="0.854" y2="0.088" gradientUnits="objectBoundingBox"><stop offset="0" stop-color="#b6359c"/><stop offset="0.2" stop-color="#ca268b"/><stop offset="0.47" stop-color="#de1779"/><stop offset="0.74" stop-color="#eb0d6e"/><stop offset="1" stop-color="#ef0a6a"/></linearGradient><linearGradient id="b" y1="0.5" x2="1" y2="0.5" gradientUnits="objectBoundingBox"><stop offset="0" stop-color="#b6359c"/><stop offset="1" stop-color="#ef0a6a"/></linearGradient></defs><g transform="translate(-278 -36.23)"><g transform="translate(278 36.23)"><g transform="translate(0)"><path class="a" d="M34.105,5.761V5.75H21.963v0a3.059,3.059,0,0,0,0,6.118v0H34.431a9.2,9.2,0,0,1-.312,18.385H34.1v-.016H9.877v0a3.086,3.086,0,0,0,0,6.167v0H34.1a15.329,15.329,0,0,0,0-30.654Z" transform="translate(-6.91 -5.75)"/><path class="b" d="M154.347,300.892v0h18.182a3.088,3.088,0,0,0-.027-6.176c-.033,0-.066,0-.1.005H154.347v0a3.085,3.085,0,0,0,0,6.165Z" transform="translate(-145.337 -282.472)"/></g></g><g transform="translate(334.431 44.306)"><path class="c" d="M0,30.16H5.745c4.026,0,6.786,2.343,6.786,6.074s-2.76,6.074-6.786,6.074H0Zm5.605,9.406a3.159,3.159,0,0,0,3.453-3.332A3.158,3.158,0,0,0,5.605,32.9H3.436v6.663Z" transform="translate(0 -28.355)"/><path class="c" d="M237.293,77.709v5.224h-3.071V81.717a2.85,2.85,0,0,1-2.777,1.37c-2.256,0-3.506-1.266-3.506-2.9,0-1.735,1.267-2.813,4.182-2.813H234c-.052-.957-.694-1.492-2-1.492a4.382,4.382,0,0,0-2.551.816l-1.111-2.238a7.907,7.907,0,0,1,4.148-1.093C235.544,73.37,237.293,74.724,237.293,77.709Zm-3.3,2.2V79.1h-1.423c-1.059,0-1.44.382-1.44.957,0,.555.451.954,1.232.954A1.628,1.628,0,0,0,234,79.913Z" transform="translate(-214.3 -68.979)"/><path class="c" d="M406.428,76l-3.89,9.406h-3.4L395.27,76h3.384l2.256,5.745L403.287,76Z" transform="translate(-371.616 -71.452)"/><path class="c" d="M589.85,1.753A1.822,1.822,0,0,1,591.863,0a1.786,1.786,0,0,1,2.013,1.7,2.029,2.029,0,0,1-4.026.052Zm.364,2.8h3.295v9.4h-3.3Z" transform="translate(-554.552)"/><path class="c" d="M696.683,77.552v5.38h-3.3V78.09c0-1.354-.59-1.926-1.544-1.926-1.059,0-1.874.658-1.874,2.221v4.548h-3.3V73.527h3.143V74.55a4.052,4.052,0,0,1,2.985-1.18C695,73.37,696.683,74.637,696.683,77.552Z" transform="translate(-645.578 -68.979)"/><path class="c" d="M881,78.212c0-2.829,2.238-4.842,5.4-4.842a4.416,4.416,0,0,1,4.408,2.586l-2.551,1.3a2.039,2.039,0,0,0-1.874-1.267,2.248,2.248,0,0,0,0,4.477,2.039,2.039,0,0,0,1.874-1.267l2.551,1.3a4.417,4.417,0,0,1-4.408,2.585C883.239,83.088,881,81.075,881,78.212Z" transform="translate(-828.279 -68.979)"/><path class="c" d="M1059.65,1.753A1.822,1.822,0,0,1,1061.663,0a1.786,1.786,0,0,1,2.013,1.7,2.029,2.029,0,0,1-4.026.052Zm.364,2.8h3.3v9.4h-3.3Z" transform="translate(-996.238)"/><path class="c" d="M1133,40.763l1.874-2.221a2.677,2.677,0,0,0,2.1,1.267c.989,0,1.527-.607,1.527-1.77V32.815h-4.2V30.16h7.6v7.671c0,3.158-1.631,4.72-4.686,4.72A5.261,5.261,0,0,1,1133,40.763Z" transform="translate(-1065.199 -28.355)"/><path class="c" d="M1307.772,30.16V42.308h-3.436V32.815h-2.256V30.16Z" transform="translate(-1224.161 -28.355)"/><path class="c" d="M1430.106,38.4c0,2.169-1.631,4.147-5.293,4.147a9.223,9.223,0,0,1-4.7-1.2l1.232-2.586a6.165,6.165,0,0,0,3.369,1.007c1.163,0,1.944-.469,1.944-1.284,0-.746-.5-1.232-2.36-1.232H1421l.608-7.1h7.74v2.655h-4.894l-.159,1.77h.816C1428.7,34.585,1430.106,36.254,1430.106,38.4Z" transform="translate(-1335.128 -28.355)"/></g></g></svg>